<mxfile host="app.diagrams.net" modified="2024-06-10T01:50:52.800Z" agent="Mozilla/5.0 (Windows NT 10.0; Win64; x64) AppleWebKit/537.36 (KHTML, like Gecko) Chrome/123.0.0.0 Safari/537.36 OPR/109.0.0.0" etag="m0wNtI_RbyO9IV7OHzCh" version="24.5.2" type="device">
  <diagram name="Page-1" id="zZq7VaybYD1DG1loLCVF">
    <mxGraphModel dx="3166" dy="806" grid="1" gridSize="10" guides="1" tooltips="1" connect="1" arrows="1" fold="1" page="1" pageScale="1" pageWidth="850" pageHeight="1100" math="0" shadow="0">
      <root>
        <mxCell id="0" />
        <mxCell id="1" parent="0" />
        <mxCell id="ikjYLwRMNx4tmdUfGQpT-4" value="" style="ellipse;html=1;shape=startState;fillColor=#000000;strokeColor=#ff0000;" parent="1" vertex="1">
          <mxGeometry x="410" y="100" width="30" height="30" as="geometry" />
        </mxCell>
        <mxCell id="ikjYLwRMNx4tmdUfGQpT-5" value="" style="edgeStyle=orthogonalEdgeStyle;html=1;verticalAlign=bottom;endArrow=open;endSize=8;strokeColor=#ff0000;rounded=0;entryX=0.5;entryY=0;entryDx=0;entryDy=0;" parent="1" source="ikjYLwRMNx4tmdUfGQpT-4" target="ikjYLwRMNx4tmdUfGQpT-7" edge="1">
          <mxGeometry relative="1" as="geometry">
            <mxPoint x="425" y="190" as="targetPoint" />
          </mxGeometry>
        </mxCell>
        <mxCell id="ikjYLwRMNx4tmdUfGQpT-9" style="edgeStyle=orthogonalEdgeStyle;rounded=0;orthogonalLoop=1;jettySize=auto;html=1;" parent="1" source="ikjYLwRMNx4tmdUfGQpT-7" target="ikjYLwRMNx4tmdUfGQpT-8" edge="1">
          <mxGeometry relative="1" as="geometry">
            <mxPoint x="425" y="250" as="targetPoint" />
            <Array as="points">
              <mxPoint x="425" y="260" />
              <mxPoint x="425" y="260" />
            </Array>
          </mxGeometry>
        </mxCell>
        <mxCell id="ikjYLwRMNx4tmdUfGQpT-7" value="&quot;Sākumlapas logs&quot;" style="html=1;whiteSpace=wrap;" parent="1" vertex="1">
          <mxGeometry x="370" y="180" width="110" height="50" as="geometry" />
        </mxCell>
        <mxCell id="wYO3z8Fsa95_Q1i2Rd3B-8" style="edgeStyle=orthogonalEdgeStyle;rounded=0;orthogonalLoop=1;jettySize=auto;html=1;" edge="1" parent="1" source="ikjYLwRMNx4tmdUfGQpT-8" target="wYO3z8Fsa95_Q1i2Rd3B-7">
          <mxGeometry relative="1" as="geometry">
            <Array as="points">
              <mxPoint x="1093" y="280" />
              <mxPoint x="1093" y="280" />
            </Array>
          </mxGeometry>
        </mxCell>
        <mxCell id="wYO3z8Fsa95_Q1i2Rd3B-55" style="edgeStyle=orthogonalEdgeStyle;rounded=0;orthogonalLoop=1;jettySize=auto;html=1;" edge="1" parent="1" source="ikjYLwRMNx4tmdUfGQpT-8" target="wYO3z8Fsa95_Q1i2Rd3B-20">
          <mxGeometry relative="1" as="geometry">
            <Array as="points">
              <mxPoint x="-695" y="280" />
              <mxPoint x="-695" y="280" />
            </Array>
          </mxGeometry>
        </mxCell>
        <mxCell id="wYO3z8Fsa95_Q1i2Rd3B-56" style="edgeStyle=orthogonalEdgeStyle;rounded=0;orthogonalLoop=1;jettySize=auto;html=1;" edge="1" parent="1" source="ikjYLwRMNx4tmdUfGQpT-8" target="wYO3z8Fsa95_Q1i2Rd3B-18">
          <mxGeometry relative="1" as="geometry">
            <Array as="points">
              <mxPoint x="-565" y="280" />
              <mxPoint x="-565" y="280" />
            </Array>
          </mxGeometry>
        </mxCell>
        <mxCell id="wYO3z8Fsa95_Q1i2Rd3B-57" style="edgeStyle=orthogonalEdgeStyle;rounded=0;orthogonalLoop=1;jettySize=auto;html=1;" edge="1" parent="1" source="ikjYLwRMNx4tmdUfGQpT-8" target="wYO3z8Fsa95_Q1i2Rd3B-16">
          <mxGeometry relative="1" as="geometry">
            <Array as="points">
              <mxPoint x="-435" y="280" />
              <mxPoint x="-435" y="280" />
            </Array>
          </mxGeometry>
        </mxCell>
        <mxCell id="wYO3z8Fsa95_Q1i2Rd3B-58" style="edgeStyle=orthogonalEdgeStyle;rounded=0;orthogonalLoop=1;jettySize=auto;html=1;" edge="1" parent="1" source="ikjYLwRMNx4tmdUfGQpT-8" target="wYO3z8Fsa95_Q1i2Rd3B-14">
          <mxGeometry relative="1" as="geometry">
            <Array as="points">
              <mxPoint x="-305" y="280" />
              <mxPoint x="-305" y="280" />
            </Array>
          </mxGeometry>
        </mxCell>
        <mxCell id="wYO3z8Fsa95_Q1i2Rd3B-59" style="edgeStyle=orthogonalEdgeStyle;rounded=0;orthogonalLoop=1;jettySize=auto;html=1;entryX=0.5;entryY=0;entryDx=0;entryDy=0;" edge="1" parent="1" source="ikjYLwRMNx4tmdUfGQpT-8" target="wYO3z8Fsa95_Q1i2Rd3B-12">
          <mxGeometry relative="1" as="geometry">
            <Array as="points">
              <mxPoint x="-175" y="280" />
              <mxPoint x="-175" y="280" />
            </Array>
          </mxGeometry>
        </mxCell>
        <mxCell id="ikjYLwRMNx4tmdUfGQpT-8" value="" style="line;strokeWidth=1;fillColor=none;align=left;verticalAlign=middle;spacingTop=-1;spacingLeft=3;spacingRight=3;rotatable=0;labelPosition=right;points=[];portConstraint=eastwest;strokeColor=inherit;" parent="1" vertex="1">
          <mxGeometry x="-1050" y="260" width="2250" height="8" as="geometry" />
        </mxCell>
        <mxCell id="ikjYLwRMNx4tmdUfGQpT-15" style="edgeStyle=orthogonalEdgeStyle;rounded=0;orthogonalLoop=1;jettySize=auto;html=1;entryX=0.5;entryY=0;entryDx=0;entryDy=0;" parent="1" source="ikjYLwRMNx4tmdUfGQpT-10" target="ikjYLwRMNx4tmdUfGQpT-29" edge="1">
          <mxGeometry relative="1" as="geometry" />
        </mxCell>
        <mxCell id="ikjYLwRMNx4tmdUfGQpT-10" value="Nospiesta poga &quot;Publicēt&quot;" style="html=1;whiteSpace=wrap;" parent="1" vertex="1">
          <mxGeometry x="300" y="300" width="110" height="50" as="geometry" />
        </mxCell>
        <mxCell id="ikjYLwRMNx4tmdUfGQpT-19" style="edgeStyle=orthogonalEdgeStyle;rounded=0;orthogonalLoop=1;jettySize=auto;html=1;exitX=0.5;exitY=1;exitDx=0;exitDy=0;" parent="1" source="ikjYLwRMNx4tmdUfGQpT-11" target="ikjYLwRMNx4tmdUfGQpT-18" edge="1">
          <mxGeometry relative="1" as="geometry" />
        </mxCell>
        <mxCell id="ikjYLwRMNx4tmdUfGQpT-11" value="Nospiesta poga &quot;Dzēst&quot;" style="html=1;whiteSpace=wrap;" parent="1" vertex="1">
          <mxGeometry x="440" y="300" width="110" height="50" as="geometry" />
        </mxCell>
        <mxCell id="ikjYLwRMNx4tmdUfGQpT-12" style="edgeStyle=orthogonalEdgeStyle;rounded=0;orthogonalLoop=1;jettySize=auto;html=1;entryX=0.5;entryY=0;entryDx=0;entryDy=0;" parent="1" target="ikjYLwRMNx4tmdUfGQpT-10" edge="1">
          <mxGeometry relative="1" as="geometry">
            <mxPoint x="435" y="270" as="targetPoint" />
            <mxPoint x="315" y="264" as="sourcePoint" />
            <Array as="points">
              <mxPoint x="314" y="262" />
              <mxPoint x="315" y="262" />
            </Array>
          </mxGeometry>
        </mxCell>
        <mxCell id="ikjYLwRMNx4tmdUfGQpT-13" style="edgeStyle=orthogonalEdgeStyle;rounded=0;orthogonalLoop=1;jettySize=auto;html=1;exitX=0.769;exitY=0.5;exitDx=0;exitDy=0;exitPerimeter=0;" parent="1" source="ikjYLwRMNx4tmdUfGQpT-8" target="ikjYLwRMNx4tmdUfGQpT-11" edge="1">
          <mxGeometry relative="1" as="geometry">
            <mxPoint x="445" y="280" as="targetPoint" />
            <mxPoint x="445" y="250" as="sourcePoint" />
            <Array as="points">
              <mxPoint x="535" y="270" />
              <mxPoint x="535" y="270" />
            </Array>
          </mxGeometry>
        </mxCell>
        <mxCell id="ikjYLwRMNx4tmdUfGQpT-17" style="edgeStyle=orthogonalEdgeStyle;rounded=0;orthogonalLoop=1;jettySize=auto;html=1;entryX=0;entryY=0.5;entryDx=0;entryDy=0;" parent="1" source="ikjYLwRMNx4tmdUfGQpT-14" target="ikjYLwRMNx4tmdUfGQpT-16" edge="1">
          <mxGeometry relative="1" as="geometry">
            <Array as="points">
              <mxPoint x="345" y="705" />
            </Array>
          </mxGeometry>
        </mxCell>
        <mxCell id="ikjYLwRMNx4tmdUfGQpT-14" value="Komentārs tiek publicēts" style="html=1;whiteSpace=wrap;" parent="1" vertex="1">
          <mxGeometry x="290" y="570" width="110" height="50" as="geometry" />
        </mxCell>
        <mxCell id="ikjYLwRMNx4tmdUfGQpT-16" value="" style="ellipse;html=1;shape=endState;fillColor=#000000;strokeColor=#ff0000;" parent="1" vertex="1">
          <mxGeometry x="330" y="690" width="30" height="30" as="geometry" />
        </mxCell>
        <mxCell id="ikjYLwRMNx4tmdUfGQpT-20" style="edgeStyle=orthogonalEdgeStyle;rounded=0;orthogonalLoop=1;jettySize=auto;html=1;exitX=0;exitY=0.5;exitDx=0;exitDy=0;" parent="1" source="ikjYLwRMNx4tmdUfGQpT-18" target="ikjYLwRMNx4tmdUfGQpT-16" edge="1">
          <mxGeometry relative="1" as="geometry">
            <mxPoint x="452" y="525" as="targetPoint" />
            <Array as="points">
              <mxPoint x="420" y="428" />
              <mxPoint x="420" y="705" />
            </Array>
          </mxGeometry>
        </mxCell>
        <mxCell id="ikjYLwRMNx4tmdUfGQpT-26" style="edgeStyle=orthogonalEdgeStyle;rounded=0;orthogonalLoop=1;jettySize=auto;html=1;exitX=1;exitY=0.5;exitDx=0;exitDy=0;" parent="1" source="ikjYLwRMNx4tmdUfGQpT-18" target="ikjYLwRMNx4tmdUfGQpT-25" edge="1">
          <mxGeometry relative="1" as="geometry">
            <Array as="points">
              <mxPoint x="565" y="428" />
            </Array>
          </mxGeometry>
        </mxCell>
        <mxCell id="ikjYLwRMNx4tmdUfGQpT-18" value="Vai tiešām vēlaties dzēst šo komentāru" style="rhombus;whiteSpace=wrap;html=1;" parent="1" vertex="1">
          <mxGeometry x="432.5" y="365" width="125" height="125" as="geometry" />
        </mxCell>
        <mxCell id="ikjYLwRMNx4tmdUfGQpT-23" value="Nē" style="text;html=1;align=center;verticalAlign=middle;resizable=0;points=[];autosize=1;strokeColor=none;fillColor=none;" parent="1" vertex="1">
          <mxGeometry x="400" y="438" width="40" height="30" as="geometry" />
        </mxCell>
        <mxCell id="ikjYLwRMNx4tmdUfGQpT-24" value="Jā" style="text;html=1;align=center;verticalAlign=middle;resizable=0;points=[];autosize=1;strokeColor=none;fillColor=none;" parent="1" vertex="1">
          <mxGeometry x="544" y="430" width="40" height="30" as="geometry" />
        </mxCell>
        <mxCell id="ikjYLwRMNx4tmdUfGQpT-27" style="edgeStyle=orthogonalEdgeStyle;rounded=0;orthogonalLoop=1;jettySize=auto;html=1;entryX=1;entryY=0.5;entryDx=0;entryDy=0;" parent="1" source="ikjYLwRMNx4tmdUfGQpT-25" target="ikjYLwRMNx4tmdUfGQpT-16" edge="1">
          <mxGeometry relative="1" as="geometry">
            <Array as="points">
              <mxPoint x="565" y="705" />
            </Array>
          </mxGeometry>
        </mxCell>
        <mxCell id="ikjYLwRMNx4tmdUfGQpT-25" value="&lt;div style=&quot;&quot;&gt;Specifiskais komentārs tiek dzēsts&lt;/div&gt;" style="html=1;whiteSpace=wrap;align=center;" parent="1" vertex="1">
          <mxGeometry x="510" y="525" width="110" height="50" as="geometry" />
        </mxCell>
        <mxCell id="ikjYLwRMNx4tmdUfGQpT-47" style="edgeStyle=orthogonalEdgeStyle;rounded=0;orthogonalLoop=1;jettySize=auto;html=1;entryX=0.5;entryY=0;entryDx=0;entryDy=0;" parent="1" source="ikjYLwRMNx4tmdUfGQpT-29" target="ikjYLwRMNx4tmdUfGQpT-14" edge="1">
          <mxGeometry relative="1" as="geometry" />
        </mxCell>
        <mxCell id="wYO3z8Fsa95_Q1i2Rd3B-2" style="edgeStyle=orthogonalEdgeStyle;rounded=0;orthogonalLoop=1;jettySize=auto;html=1;exitX=0;exitY=0.5;exitDx=0;exitDy=0;entryX=0.5;entryY=0;entryDx=0;entryDy=0;" edge="1" parent="1" source="ikjYLwRMNx4tmdUfGQpT-29" target="wYO3z8Fsa95_Q1i2Rd3B-1">
          <mxGeometry relative="1" as="geometry">
            <Array as="points">
              <mxPoint x="263" y="473" />
              <mxPoint x="263" y="460" />
              <mxPoint x="235" y="460" />
            </Array>
          </mxGeometry>
        </mxCell>
        <mxCell id="ikjYLwRMNx4tmdUfGQpT-29" value="Vai ir tukšs lauks?" style="rhombus;whiteSpace=wrap;html=1;" parent="1" vertex="1">
          <mxGeometry x="282.5" y="410" width="125" height="125" as="geometry" />
        </mxCell>
        <mxCell id="ikjYLwRMNx4tmdUfGQpT-39" value="Jā" style="text;html=1;align=center;verticalAlign=middle;resizable=0;points=[];autosize=1;strokeColor=none;fillColor=none;" parent="1" vertex="1">
          <mxGeometry x="260" y="438" width="40" height="30" as="geometry" />
        </mxCell>
        <mxCell id="ikjYLwRMNx4tmdUfGQpT-42" style="edgeStyle=orthogonalEdgeStyle;rounded=0;orthogonalLoop=1;jettySize=auto;html=1;entryX=0;entryY=0.5;entryDx=0;entryDy=0;" parent="1" source="ikjYLwRMNx4tmdUfGQpT-40" target="ikjYLwRMNx4tmdUfGQpT-16" edge="1">
          <mxGeometry relative="1" as="geometry">
            <mxPoint x="145" y="720" as="targetPoint" />
            <Array as="points">
              <mxPoint x="230" y="705" />
            </Array>
          </mxGeometry>
        </mxCell>
        <mxCell id="ikjYLwRMNx4tmdUfGQpT-40" value="&quot;Nevar būt tukšs lauks&quot;" style="html=1;whiteSpace=wrap;" parent="1" vertex="1">
          <mxGeometry x="172.5" y="630" width="110" height="50" as="geometry" />
        </mxCell>
        <mxCell id="ikjYLwRMNx4tmdUfGQpT-51" style="edgeStyle=orthogonalEdgeStyle;rounded=0;orthogonalLoop=1;jettySize=auto;html=1;entryX=0.5;entryY=0;entryDx=0;entryDy=0;" parent="1" source="ikjYLwRMNx4tmdUfGQpT-43" target="ikjYLwRMNx4tmdUfGQpT-50" edge="1">
          <mxGeometry relative="1" as="geometry">
            <Array as="points">
              <mxPoint x="643" y="370" />
            </Array>
          </mxGeometry>
        </mxCell>
        <mxCell id="ikjYLwRMNx4tmdUfGQpT-43" value="Nospiesta poga &quot;Patīk&quot;" style="html=1;whiteSpace=wrap;" parent="1" vertex="1">
          <mxGeometry x="580" y="300" width="110" height="50" as="geometry" />
        </mxCell>
        <mxCell id="ikjYLwRMNx4tmdUfGQpT-63" style="edgeStyle=orthogonalEdgeStyle;rounded=0;orthogonalLoop=1;jettySize=auto;html=1;entryX=0.5;entryY=0;entryDx=0;entryDy=0;" parent="1" source="ikjYLwRMNx4tmdUfGQpT-44" target="ikjYLwRMNx4tmdUfGQpT-62" edge="1">
          <mxGeometry relative="1" as="geometry" />
        </mxCell>
        <mxCell id="ikjYLwRMNx4tmdUfGQpT-44" value="Nospiesta poga &quot;Atslēgties&quot;" style="html=1;whiteSpace=wrap;" parent="1" vertex="1">
          <mxGeometry x="160" y="300" width="110" height="50" as="geometry" />
        </mxCell>
        <mxCell id="ikjYLwRMNx4tmdUfGQpT-48" value="Nē" style="text;html=1;align=center;verticalAlign=middle;resizable=0;points=[];autosize=1;strokeColor=none;fillColor=none;" parent="1" vertex="1">
          <mxGeometry x="340" y="528" width="40" height="30" as="geometry" />
        </mxCell>
        <mxCell id="ikjYLwRMNx4tmdUfGQpT-49" style="edgeStyle=orthogonalEdgeStyle;rounded=0;orthogonalLoop=1;jettySize=auto;html=1;exitX=0.825;exitY=0.5;exitDx=0;exitDy=0;exitPerimeter=0;entryX=0.5;entryY=0;entryDx=0;entryDy=0;" parent="1" source="ikjYLwRMNx4tmdUfGQpT-8" target="ikjYLwRMNx4tmdUfGQpT-43" edge="1">
          <mxGeometry relative="1" as="geometry">
            <mxPoint x="435" y="270" as="targetPoint" />
            <mxPoint x="435" y="240" as="sourcePoint" />
            <Array as="points">
              <mxPoint x="635" y="270" />
              <mxPoint x="635" y="270" />
            </Array>
          </mxGeometry>
        </mxCell>
        <mxCell id="ikjYLwRMNx4tmdUfGQpT-55" style="edgeStyle=orthogonalEdgeStyle;rounded=0;orthogonalLoop=1;jettySize=auto;html=1;entryX=0.5;entryY=0;entryDx=0;entryDy=0;" parent="1" source="ikjYLwRMNx4tmdUfGQpT-50" target="ikjYLwRMNx4tmdUfGQpT-53" edge="1">
          <mxGeometry relative="1" as="geometry" />
        </mxCell>
        <mxCell id="ikjYLwRMNx4tmdUfGQpT-56" style="edgeStyle=orthogonalEdgeStyle;rounded=0;orthogonalLoop=1;jettySize=auto;html=1;exitX=1;exitY=0.5;exitDx=0;exitDy=0;" parent="1" source="ikjYLwRMNx4tmdUfGQpT-50" target="ikjYLwRMNx4tmdUfGQpT-54" edge="1">
          <mxGeometry relative="1" as="geometry" />
        </mxCell>
        <mxCell id="ikjYLwRMNx4tmdUfGQpT-50" value="Vai šie poga bija jau nospiesta šijām komentāram?" style="rhombus;whiteSpace=wrap;html=1;" parent="1" vertex="1">
          <mxGeometry x="580" y="372.5" width="125" height="125" as="geometry" />
        </mxCell>
        <mxCell id="ikjYLwRMNx4tmdUfGQpT-59" style="edgeStyle=orthogonalEdgeStyle;rounded=0;orthogonalLoop=1;jettySize=auto;html=1;entryX=1;entryY=0.5;entryDx=0;entryDy=0;" parent="1" source="ikjYLwRMNx4tmdUfGQpT-53" target="ikjYLwRMNx4tmdUfGQpT-16" edge="1">
          <mxGeometry relative="1" as="geometry">
            <Array as="points">
              <mxPoint x="640" y="705" />
            </Array>
          </mxGeometry>
        </mxCell>
        <mxCell id="ikjYLwRMNx4tmdUfGQpT-53" value="&lt;div style=&quot;&quot;&gt;Komentāram tiek palielināts patīk skaits&lt;/div&gt;" style="html=1;whiteSpace=wrap;align=center;" parent="1" vertex="1">
          <mxGeometry x="587.5" y="590" width="110" height="50" as="geometry" />
        </mxCell>
        <mxCell id="ikjYLwRMNx4tmdUfGQpT-61" style="edgeStyle=orthogonalEdgeStyle;rounded=0;orthogonalLoop=1;jettySize=auto;html=1;entryX=1;entryY=0.5;entryDx=0;entryDy=0;" parent="1" source="ikjYLwRMNx4tmdUfGQpT-54" target="ikjYLwRMNx4tmdUfGQpT-16" edge="1">
          <mxGeometry relative="1" as="geometry">
            <Array as="points">
              <mxPoint x="760" y="705" />
            </Array>
          </mxGeometry>
        </mxCell>
        <mxCell id="ikjYLwRMNx4tmdUfGQpT-54" value="&lt;div style=&quot;&quot;&gt;Komentāram tiek pazemināts patīk skaits&lt;/div&gt;" style="html=1;whiteSpace=wrap;align=center;" parent="1" vertex="1">
          <mxGeometry x="705" y="528" width="110" height="50" as="geometry" />
        </mxCell>
        <mxCell id="ikjYLwRMNx4tmdUfGQpT-57" value="Jā" style="text;html=1;align=center;verticalAlign=middle;resizable=0;points=[];autosize=1;strokeColor=none;fillColor=none;" parent="1" vertex="1">
          <mxGeometry x="700" y="408" width="40" height="30" as="geometry" />
        </mxCell>
        <mxCell id="ikjYLwRMNx4tmdUfGQpT-58" value="Nē" style="text;html=1;align=center;verticalAlign=middle;resizable=0;points=[];autosize=1;strokeColor=none;fillColor=none;" parent="1" vertex="1">
          <mxGeometry x="640" y="498" width="40" height="30" as="geometry" />
        </mxCell>
        <mxCell id="ikjYLwRMNx4tmdUfGQpT-64" style="edgeStyle=orthogonalEdgeStyle;rounded=0;orthogonalLoop=1;jettySize=auto;html=1;entryX=0;entryY=0.5;entryDx=0;entryDy=0;" parent="1" source="ikjYLwRMNx4tmdUfGQpT-62" target="ikjYLwRMNx4tmdUfGQpT-16" edge="1">
          <mxGeometry relative="1" as="geometry">
            <Array as="points">
              <mxPoint x="150" y="390" />
              <mxPoint x="150" y="705" />
            </Array>
          </mxGeometry>
        </mxCell>
        <mxCell id="ikjYLwRMNx4tmdUfGQpT-62" value="Lietotājs tiek aizvests uz &quot;Autorizācijas logu&quot;" style="html=1;whiteSpace=wrap;" parent="1" vertex="1">
          <mxGeometry x="160" y="365" width="110" height="50" as="geometry" />
        </mxCell>
        <mxCell id="ikjYLwRMNx4tmdUfGQpT-65" style="edgeStyle=orthogonalEdgeStyle;rounded=0;orthogonalLoop=1;jettySize=auto;html=1;exitX=0.182;exitY=0.528;exitDx=0;exitDy=0;exitPerimeter=0;" parent="1" source="ikjYLwRMNx4tmdUfGQpT-8" target="ikjYLwRMNx4tmdUfGQpT-44" edge="1">
          <mxGeometry relative="1" as="geometry">
            <mxPoint x="435" y="270" as="targetPoint" />
            <mxPoint x="435" y="240" as="sourcePoint" />
            <Array as="points">
              <mxPoint x="210" y="290" />
              <mxPoint x="210" y="290" />
            </Array>
          </mxGeometry>
        </mxCell>
        <mxCell id="ikjYLwRMNx4tmdUfGQpT-76" style="edgeStyle=orthogonalEdgeStyle;rounded=0;orthogonalLoop=1;jettySize=auto;html=1;" parent="1" source="ikjYLwRMNx4tmdUfGQpT-66" target="ikjYLwRMNx4tmdUfGQpT-75" edge="1">
          <mxGeometry relative="1" as="geometry" />
        </mxCell>
        <mxCell id="ikjYLwRMNx4tmdUfGQpT-66" value="Nospiesta poga &quot;Atbildēt&quot;" style="html=1;whiteSpace=wrap;" parent="1" vertex="1">
          <mxGeometry x="720" y="300" width="110" height="50" as="geometry" />
        </mxCell>
        <mxCell id="ikjYLwRMNx4tmdUfGQpT-73" style="edgeStyle=orthogonalEdgeStyle;rounded=0;orthogonalLoop=1;jettySize=auto;html=1;exitX=0.5;exitY=1;exitDx=0;exitDy=0;entryX=0.5;entryY=0;entryDx=0;entryDy=0;" parent="1" source="ikjYLwRMNx4tmdUfGQpT-67" target="ikjYLwRMNx4tmdUfGQpT-72" edge="1">
          <mxGeometry relative="1" as="geometry" />
        </mxCell>
        <mxCell id="ikjYLwRMNx4tmdUfGQpT-67" value="Nospiesta poga &quot;Profils&quot;" style="html=1;whiteSpace=wrap;" parent="1" vertex="1">
          <mxGeometry x="30" y="300" width="110" height="50" as="geometry" />
        </mxCell>
        <mxCell id="ikjYLwRMNx4tmdUfGQpT-71" style="edgeStyle=orthogonalEdgeStyle;rounded=0;orthogonalLoop=1;jettySize=auto;html=1;exitX=0.5;exitY=1;exitDx=0;exitDy=0;entryX=0.5;entryY=0;entryDx=0;entryDy=0;" parent="1" source="ikjYLwRMNx4tmdUfGQpT-68" target="ikjYLwRMNx4tmdUfGQpT-69" edge="1">
          <mxGeometry relative="1" as="geometry" />
        </mxCell>
        <mxCell id="ikjYLwRMNx4tmdUfGQpT-68" value="Nospiests konkrēts lietotājs" style="html=1;whiteSpace=wrap;" parent="1" vertex="1">
          <mxGeometry x="-100" y="301" width="110" height="50" as="geometry" />
        </mxCell>
        <mxCell id="ikjYLwRMNx4tmdUfGQpT-70" style="edgeStyle=orthogonalEdgeStyle;rounded=0;orthogonalLoop=1;jettySize=auto;html=1;entryX=0;entryY=0.5;entryDx=0;entryDy=0;" parent="1" source="ikjYLwRMNx4tmdUfGQpT-69" target="ikjYLwRMNx4tmdUfGQpT-16" edge="1">
          <mxGeometry relative="1" as="geometry">
            <Array as="points">
              <mxPoint x="-40" y="705" />
            </Array>
          </mxGeometry>
        </mxCell>
        <mxCell id="ikjYLwRMNx4tmdUfGQpT-69" value="Tiek atvērts tā lietotāja profils" style="html=1;whiteSpace=wrap;" parent="1" vertex="1">
          <mxGeometry x="-100" y="365" width="110" height="50" as="geometry" />
        </mxCell>
        <mxCell id="ikjYLwRMNx4tmdUfGQpT-74" style="edgeStyle=orthogonalEdgeStyle;rounded=0;orthogonalLoop=1;jettySize=auto;html=1;entryX=0;entryY=0.5;entryDx=0;entryDy=0;" parent="1" source="ikjYLwRMNx4tmdUfGQpT-72" target="ikjYLwRMNx4tmdUfGQpT-16" edge="1">
          <mxGeometry relative="1" as="geometry">
            <Array as="points">
              <mxPoint x="85" y="705" />
            </Array>
          </mxGeometry>
        </mxCell>
        <mxCell id="ikjYLwRMNx4tmdUfGQpT-72" value="Tiek atvērts lietotāja profils" style="html=1;whiteSpace=wrap;" parent="1" vertex="1">
          <mxGeometry x="30" y="365" width="110" height="50" as="geometry" />
        </mxCell>
        <mxCell id="ikjYLwRMNx4tmdUfGQpT-77" style="edgeStyle=orthogonalEdgeStyle;rounded=0;orthogonalLoop=1;jettySize=auto;html=1;entryX=1;entryY=0.5;entryDx=0;entryDy=0;" parent="1" source="ikjYLwRMNx4tmdUfGQpT-75" target="ikjYLwRMNx4tmdUfGQpT-16" edge="1">
          <mxGeometry relative="1" as="geometry">
            <Array as="points">
              <mxPoint x="845" y="705" />
            </Array>
          </mxGeometry>
        </mxCell>
        <mxCell id="ikjYLwRMNx4tmdUfGQpT-75" value="Lietotājam tiek dota iespēja atbildēt uz konkrēto komentāru" style="html=1;whiteSpace=wrap;" parent="1" vertex="1">
          <mxGeometry x="790" y="397.5" width="110" height="50" as="geometry" />
        </mxCell>
        <mxCell id="ikjYLwRMNx4tmdUfGQpT-78" style="edgeStyle=orthogonalEdgeStyle;rounded=0;orthogonalLoop=1;jettySize=auto;html=1;exitX=0.891;exitY=1;exitDx=0;exitDy=0;exitPerimeter=0;" parent="1" source="ikjYLwRMNx4tmdUfGQpT-8" target="ikjYLwRMNx4tmdUfGQpT-66" edge="1">
          <mxGeometry relative="1" as="geometry">
            <mxPoint x="435" y="270" as="targetPoint" />
            <mxPoint x="435" y="240" as="sourcePoint" />
            <Array as="points">
              <mxPoint x="761" y="270" />
              <mxPoint x="775" y="270" />
            </Array>
          </mxGeometry>
        </mxCell>
        <mxCell id="ikjYLwRMNx4tmdUfGQpT-79" style="edgeStyle=orthogonalEdgeStyle;rounded=0;orthogonalLoop=1;jettySize=auto;html=1;entryX=0.54;entryY=-0.024;entryDx=0;entryDy=0;entryPerimeter=0;" parent="1" target="ikjYLwRMNx4tmdUfGQpT-67" edge="1">
          <mxGeometry relative="1" as="geometry">
            <mxPoint x="435" y="270" as="targetPoint" />
            <mxPoint x="90" y="260" as="sourcePoint" />
            <Array as="points">
              <mxPoint x="90" y="270" />
              <mxPoint x="89" y="270" />
            </Array>
          </mxGeometry>
        </mxCell>
        <mxCell id="ikjYLwRMNx4tmdUfGQpT-81" style="edgeStyle=orthogonalEdgeStyle;rounded=0;orthogonalLoop=1;jettySize=auto;html=1;exitX=0.084;exitY=0.366;exitDx=0;exitDy=0;exitPerimeter=0;entryX=0.479;entryY=0.011;entryDx=0;entryDy=0;entryPerimeter=0;" parent="1" source="ikjYLwRMNx4tmdUfGQpT-8" target="ikjYLwRMNx4tmdUfGQpT-68" edge="1">
          <mxGeometry relative="1" as="geometry">
            <mxPoint x="40" y="280" as="targetPoint" />
            <mxPoint x="100" y="270" as="sourcePoint" />
            <Array as="points">
              <mxPoint x="-47" y="263" />
              <mxPoint x="-47" y="302" />
            </Array>
          </mxGeometry>
        </mxCell>
        <mxCell id="ikjYLwRMNx4tmdUfGQpT-85" style="edgeStyle=orthogonalEdgeStyle;rounded=0;orthogonalLoop=1;jettySize=auto;html=1;entryX=0.512;entryY=0.045;entryDx=0;entryDy=0;entryPerimeter=0;" parent="1" source="ikjYLwRMNx4tmdUfGQpT-82" target="ikjYLwRMNx4tmdUfGQpT-86" edge="1">
          <mxGeometry relative="1" as="geometry">
            <mxPoint x="975" y="397.5" as="targetPoint" />
          </mxGeometry>
        </mxCell>
        <mxCell id="ikjYLwRMNx4tmdUfGQpT-82" value="Nospiesta poga &quot;Pārpublicēt&quot;" style="html=1;whiteSpace=wrap;" parent="1" vertex="1">
          <mxGeometry x="870" y="300" width="110" height="50" as="geometry" />
        </mxCell>
        <mxCell id="ikjYLwRMNx4tmdUfGQpT-83" style="edgeStyle=orthogonalEdgeStyle;rounded=0;orthogonalLoop=1;jettySize=auto;html=1;exitX=0.933;exitY=0.771;exitDx=0;exitDy=0;exitPerimeter=0;entryX=0.552;entryY=0.04;entryDx=0;entryDy=0;entryPerimeter=0;" parent="1" source="ikjYLwRMNx4tmdUfGQpT-8" target="ikjYLwRMNx4tmdUfGQpT-82" edge="1">
          <mxGeometry relative="1" as="geometry">
            <mxPoint x="435" y="270" as="targetPoint" />
            <mxPoint x="435" y="240" as="sourcePoint" />
            <Array as="points">
              <mxPoint x="934" y="270" />
              <mxPoint x="931" y="270" />
            </Array>
          </mxGeometry>
        </mxCell>
        <mxCell id="ikjYLwRMNx4tmdUfGQpT-89" style="edgeStyle=orthogonalEdgeStyle;rounded=0;orthogonalLoop=1;jettySize=auto;html=1;exitX=1;exitY=0.5;exitDx=0;exitDy=0;entryX=0.5;entryY=0;entryDx=0;entryDy=0;" parent="1" source="ikjYLwRMNx4tmdUfGQpT-86" target="ikjYLwRMNx4tmdUfGQpT-88" edge="1">
          <mxGeometry relative="1" as="geometry" />
        </mxCell>
        <mxCell id="ikjYLwRMNx4tmdUfGQpT-90" style="edgeStyle=orthogonalEdgeStyle;rounded=0;orthogonalLoop=1;jettySize=auto;html=1;exitX=0.5;exitY=1;exitDx=0;exitDy=0;entryX=0.5;entryY=0;entryDx=0;entryDy=0;" parent="1" source="ikjYLwRMNx4tmdUfGQpT-86" target="ikjYLwRMNx4tmdUfGQpT-87" edge="1">
          <mxGeometry relative="1" as="geometry" />
        </mxCell>
        <mxCell id="ikjYLwRMNx4tmdUfGQpT-86" value="Vai šie poga bija jau nospiesta šijām komentāram?" style="rhombus;whiteSpace=wrap;html=1;" parent="1" vertex="1">
          <mxGeometry x="920" y="403" width="125" height="125" as="geometry" />
        </mxCell>
        <mxCell id="ikjYLwRMNx4tmdUfGQpT-93" style="edgeStyle=orthogonalEdgeStyle;rounded=0;orthogonalLoop=1;jettySize=auto;html=1;entryX=1;entryY=0.5;entryDx=0;entryDy=0;" parent="1" source="ikjYLwRMNx4tmdUfGQpT-87" target="ikjYLwRMNx4tmdUfGQpT-16" edge="1">
          <mxGeometry relative="1" as="geometry">
            <Array as="points">
              <mxPoint x="983" y="705" />
            </Array>
          </mxGeometry>
        </mxCell>
        <mxCell id="ikjYLwRMNx4tmdUfGQpT-87" value="&lt;div style=&quot;&quot;&gt;Komentāram tiek pārpublicēts&lt;/div&gt;" style="html=1;whiteSpace=wrap;align=center;" parent="1" vertex="1">
          <mxGeometry x="927.5" y="590" width="110" height="50" as="geometry" />
        </mxCell>
        <mxCell id="ikjYLwRMNx4tmdUfGQpT-94" style="edgeStyle=orthogonalEdgeStyle;rounded=0;orthogonalLoop=1;jettySize=auto;html=1;entryX=1;entryY=0.5;entryDx=0;entryDy=0;" parent="1" source="ikjYLwRMNx4tmdUfGQpT-88" target="ikjYLwRMNx4tmdUfGQpT-16" edge="1">
          <mxGeometry relative="1" as="geometry">
            <Array as="points">
              <mxPoint x="1130" y="705" />
            </Array>
          </mxGeometry>
        </mxCell>
        <mxCell id="ikjYLwRMNx4tmdUfGQpT-88" value="&lt;div style=&quot;&quot;&gt;Tiek atcelts pārpublicējums&lt;/div&gt;" style="html=1;whiteSpace=wrap;align=center;" parent="1" vertex="1">
          <mxGeometry x="1070" y="525" width="110" height="50" as="geometry" />
        </mxCell>
        <mxCell id="ikjYLwRMNx4tmdUfGQpT-91" value="Jā" style="text;html=1;align=center;verticalAlign=middle;resizable=0;points=[];autosize=1;strokeColor=none;fillColor=none;" parent="1" vertex="1">
          <mxGeometry x="1040" y="438" width="40" height="30" as="geometry" />
        </mxCell>
        <mxCell id="ikjYLwRMNx4tmdUfGQpT-92" value="Nē" style="text;html=1;align=center;verticalAlign=middle;resizable=0;points=[];autosize=1;strokeColor=none;fillColor=none;" parent="1" vertex="1">
          <mxGeometry x="980" y="520" width="40" height="30" as="geometry" />
        </mxCell>
        <mxCell id="wYO3z8Fsa95_Q1i2Rd3B-3" style="edgeStyle=orthogonalEdgeStyle;rounded=0;orthogonalLoop=1;jettySize=auto;html=1;" edge="1" parent="1" source="wYO3z8Fsa95_Q1i2Rd3B-1" target="ikjYLwRMNx4tmdUfGQpT-40">
          <mxGeometry relative="1" as="geometry">
            <Array as="points">
              <mxPoint x="170" y="535" />
              <mxPoint x="170" y="618" />
              <mxPoint x="228" y="618" />
            </Array>
          </mxGeometry>
        </mxCell>
        <mxCell id="wYO3z8Fsa95_Q1i2Rd3B-4" style="edgeStyle=orthogonalEdgeStyle;rounded=0;orthogonalLoop=1;jettySize=auto;html=1;exitX=1;exitY=0.5;exitDx=0;exitDy=0;" edge="1" parent="1" source="wYO3z8Fsa95_Q1i2Rd3B-1" target="ikjYLwRMNx4tmdUfGQpT-14">
          <mxGeometry relative="1" as="geometry" />
        </mxCell>
        <mxCell id="wYO3z8Fsa95_Q1i2Rd3B-1" value="Vai ir ievadīts attēls?" style="rhombus;whiteSpace=wrap;html=1;" vertex="1" parent="1">
          <mxGeometry x="172.5" y="472.5" width="125" height="125" as="geometry" />
        </mxCell>
        <mxCell id="wYO3z8Fsa95_Q1i2Rd3B-5" value="Jā" style="text;html=1;align=center;verticalAlign=middle;resizable=0;points=[];autosize=1;strokeColor=none;fillColor=none;" vertex="1" parent="1">
          <mxGeometry x="283" y="510" width="40" height="30" as="geometry" />
        </mxCell>
        <mxCell id="wYO3z8Fsa95_Q1i2Rd3B-6" value="Ne" style="text;html=1;align=center;verticalAlign=middle;resizable=0;points=[];autosize=1;strokeColor=none;fillColor=none;" vertex="1" parent="1">
          <mxGeometry x="149" y="509" width="40" height="30" as="geometry" />
        </mxCell>
        <mxCell id="wYO3z8Fsa95_Q1i2Rd3B-10" style="edgeStyle=orthogonalEdgeStyle;rounded=0;orthogonalLoop=1;jettySize=auto;html=1;entryX=0.5;entryY=0;entryDx=0;entryDy=0;" edge="1" parent="1" source="wYO3z8Fsa95_Q1i2Rd3B-7" target="wYO3z8Fsa95_Q1i2Rd3B-9">
          <mxGeometry relative="1" as="geometry" />
        </mxCell>
        <mxCell id="wYO3z8Fsa95_Q1i2Rd3B-7" value="Nospiesta poga &quot;Rediģēt&quot;" style="html=1;whiteSpace=wrap;" vertex="1" parent="1">
          <mxGeometry x="1037.5" y="300" width="110" height="50" as="geometry" />
        </mxCell>
        <mxCell id="wYO3z8Fsa95_Q1i2Rd3B-11" style="edgeStyle=orthogonalEdgeStyle;rounded=0;orthogonalLoop=1;jettySize=auto;html=1;entryX=1;entryY=0.5;entryDx=0;entryDy=0;" edge="1" parent="1" source="wYO3z8Fsa95_Q1i2Rd3B-9" target="ikjYLwRMNx4tmdUfGQpT-16">
          <mxGeometry relative="1" as="geometry">
            <Array as="points">
              <mxPoint x="1190" y="705" />
            </Array>
          </mxGeometry>
        </mxCell>
        <mxCell id="wYO3z8Fsa95_Q1i2Rd3B-9" value="Lietotājam tiek dota iespēja rediģēt savu komentāru" style="html=1;whiteSpace=wrap;" vertex="1" parent="1">
          <mxGeometry x="1130" y="397.5" width="110" height="50" as="geometry" />
        </mxCell>
        <mxCell id="wYO3z8Fsa95_Q1i2Rd3B-12" value="Nospiesta poga &quot;Iestatījumi&quot;" style="html=1;whiteSpace=wrap;" vertex="1" parent="1">
          <mxGeometry x="-230" y="300" width="110" height="50" as="geometry" />
        </mxCell>
        <mxCell id="wYO3z8Fsa95_Q1i2Rd3B-61" style="edgeStyle=orthogonalEdgeStyle;rounded=0;orthogonalLoop=1;jettySize=auto;html=1;entryX=0;entryY=0.5;entryDx=0;entryDy=0;" edge="1" parent="1" source="wYO3z8Fsa95_Q1i2Rd3B-13" target="ikjYLwRMNx4tmdUfGQpT-16">
          <mxGeometry relative="1" as="geometry">
            <Array as="points">
              <mxPoint x="-170" y="705" />
            </Array>
          </mxGeometry>
        </mxCell>
        <mxCell id="wYO3z8Fsa95_Q1i2Rd3B-13" value="Tiek atvērts iestatījuma logs" style="html=1;whiteSpace=wrap;" vertex="1" parent="1">
          <mxGeometry x="-230" y="365" width="110" height="50" as="geometry" />
        </mxCell>
        <mxCell id="wYO3z8Fsa95_Q1i2Rd3B-14" value="Nospiesta poga &quot;Paziņojumi&quot;" style="html=1;whiteSpace=wrap;" vertex="1" parent="1">
          <mxGeometry x="-360" y="301" width="110" height="50" as="geometry" />
        </mxCell>
        <mxCell id="wYO3z8Fsa95_Q1i2Rd3B-62" style="edgeStyle=orthogonalEdgeStyle;rounded=0;orthogonalLoop=1;jettySize=auto;html=1;entryX=0;entryY=0.5;entryDx=0;entryDy=0;" edge="1" parent="1" source="wYO3z8Fsa95_Q1i2Rd3B-15" target="ikjYLwRMNx4tmdUfGQpT-16">
          <mxGeometry relative="1" as="geometry">
            <Array as="points">
              <mxPoint x="-305" y="705" />
            </Array>
          </mxGeometry>
        </mxCell>
        <mxCell id="wYO3z8Fsa95_Q1i2Rd3B-15" value="Tiek atvērts paziņojumu logs" style="html=1;whiteSpace=wrap;" vertex="1" parent="1">
          <mxGeometry x="-360" y="366" width="110" height="50" as="geometry" />
        </mxCell>
        <mxCell id="wYO3z8Fsa95_Q1i2Rd3B-16" value="Nospiesta poga &quot;Čats&quot;" style="html=1;whiteSpace=wrap;" vertex="1" parent="1">
          <mxGeometry x="-490" y="301" width="110" height="50" as="geometry" />
        </mxCell>
        <mxCell id="wYO3z8Fsa95_Q1i2Rd3B-63" style="edgeStyle=orthogonalEdgeStyle;rounded=0;orthogonalLoop=1;jettySize=auto;html=1;entryX=0;entryY=0.5;entryDx=0;entryDy=0;" edge="1" parent="1" source="wYO3z8Fsa95_Q1i2Rd3B-17" target="ikjYLwRMNx4tmdUfGQpT-16">
          <mxGeometry relative="1" as="geometry">
            <Array as="points">
              <mxPoint x="-435" y="705" />
            </Array>
          </mxGeometry>
        </mxCell>
        <mxCell id="wYO3z8Fsa95_Q1i2Rd3B-17" value="Tiek atvērts čats" style="html=1;whiteSpace=wrap;" vertex="1" parent="1">
          <mxGeometry x="-490" y="366" width="110" height="50" as="geometry" />
        </mxCell>
        <mxCell id="wYO3z8Fsa95_Q1i2Rd3B-18" value="Nospiesta poga &quot;Spēles&quot;" style="html=1;whiteSpace=wrap;" vertex="1" parent="1">
          <mxGeometry x="-620" y="301" width="110" height="50" as="geometry" />
        </mxCell>
        <mxCell id="wYO3z8Fsa95_Q1i2Rd3B-64" style="edgeStyle=orthogonalEdgeStyle;rounded=0;orthogonalLoop=1;jettySize=auto;html=1;entryX=0;entryY=0.5;entryDx=0;entryDy=0;" edge="1" parent="1" source="wYO3z8Fsa95_Q1i2Rd3B-19" target="ikjYLwRMNx4tmdUfGQpT-16">
          <mxGeometry relative="1" as="geometry">
            <Array as="points">
              <mxPoint x="-560" y="705" />
            </Array>
          </mxGeometry>
        </mxCell>
        <mxCell id="wYO3z8Fsa95_Q1i2Rd3B-19" value="Tiek atvērts spēles logs" style="html=1;whiteSpace=wrap;" vertex="1" parent="1">
          <mxGeometry x="-620" y="366" width="110" height="50" as="geometry" />
        </mxCell>
        <mxCell id="wYO3z8Fsa95_Q1i2Rd3B-34" style="edgeStyle=orthogonalEdgeStyle;rounded=0;orthogonalLoop=1;jettySize=auto;html=1;entryX=1;entryY=0.5;entryDx=0;entryDy=0;" edge="1" parent="1" source="wYO3z8Fsa95_Q1i2Rd3B-20" target="wYO3z8Fsa95_Q1i2Rd3B-33">
          <mxGeometry relative="1" as="geometry" />
        </mxCell>
        <mxCell id="wYO3z8Fsa95_Q1i2Rd3B-35" style="edgeStyle=orthogonalEdgeStyle;rounded=0;orthogonalLoop=1;jettySize=auto;html=1;" edge="1" parent="1" source="wYO3z8Fsa95_Q1i2Rd3B-20" target="wYO3z8Fsa95_Q1i2Rd3B-22">
          <mxGeometry relative="1" as="geometry" />
        </mxCell>
        <mxCell id="wYO3z8Fsa95_Q1i2Rd3B-20" value="Tiek ievadīts lietotājavārds meklēšanas logā" style="html=1;whiteSpace=wrap;" vertex="1" parent="1">
          <mxGeometry x="-750" y="301" width="110" height="50" as="geometry" />
        </mxCell>
        <mxCell id="wYO3z8Fsa95_Q1i2Rd3B-27" style="edgeStyle=orthogonalEdgeStyle;rounded=0;orthogonalLoop=1;jettySize=auto;html=1;exitX=1;exitY=0.5;exitDx=0;exitDy=0;entryX=0.5;entryY=0;entryDx=0;entryDy=0;" edge="1" parent="1" source="wYO3z8Fsa95_Q1i2Rd3B-22" target="wYO3z8Fsa95_Q1i2Rd3B-23">
          <mxGeometry relative="1" as="geometry">
            <Array as="points">
              <mxPoint x="-625" y="435" />
            </Array>
          </mxGeometry>
        </mxCell>
        <mxCell id="wYO3z8Fsa95_Q1i2Rd3B-22" value="Vai šāds lietotājs&lt;div&gt;ir datubāzē?&lt;/div&gt;" style="rhombus;whiteSpace=wrap;html=1;" vertex="1" parent="1">
          <mxGeometry x="-757.5" y="372.5" width="125" height="125" as="geometry" />
        </mxCell>
        <mxCell id="wYO3z8Fsa95_Q1i2Rd3B-65" style="edgeStyle=orthogonalEdgeStyle;rounded=0;orthogonalLoop=1;jettySize=auto;html=1;entryX=0;entryY=0.5;entryDx=0;entryDy=0;" edge="1" parent="1" source="wYO3z8Fsa95_Q1i2Rd3B-23" target="ikjYLwRMNx4tmdUfGQpT-16">
          <mxGeometry relative="1" as="geometry">
            <Array as="points">
              <mxPoint x="-625" y="705" />
            </Array>
          </mxGeometry>
        </mxCell>
        <mxCell id="wYO3z8Fsa95_Q1i2Rd3B-23" value="Nav atrasti piedāvājumi" style="html=1;whiteSpace=wrap;" vertex="1" parent="1">
          <mxGeometry x="-680" y="528" width="110" height="50" as="geometry" />
        </mxCell>
        <mxCell id="wYO3z8Fsa95_Q1i2Rd3B-66" style="edgeStyle=orthogonalEdgeStyle;rounded=0;orthogonalLoop=1;jettySize=auto;html=1;entryX=0;entryY=0.5;entryDx=0;entryDy=0;" edge="1" parent="1" source="wYO3z8Fsa95_Q1i2Rd3B-24" target="ikjYLwRMNx4tmdUfGQpT-16">
          <mxGeometry relative="1" as="geometry">
            <Array as="points">
              <mxPoint x="-755" y="705" />
            </Array>
          </mxGeometry>
        </mxCell>
        <mxCell id="wYO3z8Fsa95_Q1i2Rd3B-24" value="Piedāvā lietotājus" style="html=1;whiteSpace=wrap;" vertex="1" parent="1">
          <mxGeometry x="-810" y="528" width="110" height="50" as="geometry" />
        </mxCell>
        <mxCell id="wYO3z8Fsa95_Q1i2Rd3B-26" style="edgeStyle=orthogonalEdgeStyle;rounded=0;orthogonalLoop=1;jettySize=auto;html=1;exitX=0;exitY=0.5;exitDx=0;exitDy=0;entryX=0.453;entryY=0.013;entryDx=0;entryDy=0;entryPerimeter=0;" edge="1" parent="1" source="wYO3z8Fsa95_Q1i2Rd3B-22" target="wYO3z8Fsa95_Q1i2Rd3B-24">
          <mxGeometry relative="1" as="geometry">
            <Array as="points">
              <mxPoint x="-760" y="435" />
              <mxPoint x="-760" y="529" />
            </Array>
          </mxGeometry>
        </mxCell>
        <mxCell id="wYO3z8Fsa95_Q1i2Rd3B-33" value="Tiek nospiesta meklēšanas poga" style="html=1;whiteSpace=wrap;" vertex="1" parent="1">
          <mxGeometry x="-1000" y="300" width="110" height="50" as="geometry" />
        </mxCell>
        <mxCell id="wYO3z8Fsa95_Q1i2Rd3B-38" value="Nē" style="text;html=1;align=center;verticalAlign=middle;resizable=0;points=[];autosize=1;strokeColor=none;fillColor=none;" vertex="1" parent="1">
          <mxGeometry x="-650" y="410" width="40" height="30" as="geometry" />
        </mxCell>
        <mxCell id="wYO3z8Fsa95_Q1i2Rd3B-39" value="Jā" style="text;html=1;align=center;verticalAlign=middle;resizable=0;points=[];autosize=1;strokeColor=none;fillColor=none;" vertex="1" parent="1">
          <mxGeometry x="-780" y="408" width="40" height="30" as="geometry" />
        </mxCell>
        <mxCell id="wYO3z8Fsa95_Q1i2Rd3B-47" style="edgeStyle=orthogonalEdgeStyle;rounded=0;orthogonalLoop=1;jettySize=auto;html=1;exitX=1;exitY=0.5;exitDx=0;exitDy=0;entryX=0.5;entryY=0;entryDx=0;entryDy=0;" edge="1" parent="1" source="wYO3z8Fsa95_Q1i2Rd3B-48" target="wYO3z8Fsa95_Q1i2Rd3B-49">
          <mxGeometry relative="1" as="geometry">
            <Array as="points">
              <mxPoint x="-875" y="435" />
            </Array>
          </mxGeometry>
        </mxCell>
        <mxCell id="wYO3z8Fsa95_Q1i2Rd3B-48" value="Vai šāds lietotājs&lt;div&gt;ir datubāzē?&lt;/div&gt;" style="rhombus;whiteSpace=wrap;html=1;" vertex="1" parent="1">
          <mxGeometry x="-1007.5" y="372.5" width="125" height="125" as="geometry" />
        </mxCell>
        <mxCell id="wYO3z8Fsa95_Q1i2Rd3B-67" style="edgeStyle=orthogonalEdgeStyle;rounded=0;orthogonalLoop=1;jettySize=auto;html=1;entryX=0;entryY=0.5;entryDx=0;entryDy=0;" edge="1" parent="1" source="wYO3z8Fsa95_Q1i2Rd3B-49" target="ikjYLwRMNx4tmdUfGQpT-16">
          <mxGeometry relative="1" as="geometry">
            <Array as="points">
              <mxPoint x="-870" y="705" />
            </Array>
          </mxGeometry>
        </mxCell>
        <mxCell id="wYO3z8Fsa95_Q1i2Rd3B-49" value="Nav atrasts lietotājs" style="html=1;whiteSpace=wrap;" vertex="1" parent="1">
          <mxGeometry x="-930" y="528" width="110" height="50" as="geometry" />
        </mxCell>
        <mxCell id="wYO3z8Fsa95_Q1i2Rd3B-68" style="edgeStyle=orthogonalEdgeStyle;rounded=0;orthogonalLoop=1;jettySize=auto;html=1;entryX=0;entryY=0.5;entryDx=0;entryDy=0;" edge="1" parent="1" source="wYO3z8Fsa95_Q1i2Rd3B-50" target="ikjYLwRMNx4tmdUfGQpT-16">
          <mxGeometry relative="1" as="geometry">
            <Array as="points">
              <mxPoint x="-1010" y="705" />
            </Array>
          </mxGeometry>
        </mxCell>
        <mxCell id="wYO3z8Fsa95_Q1i2Rd3B-50" value="Piedāvā lietotājus" style="html=1;whiteSpace=wrap;" vertex="1" parent="1">
          <mxGeometry x="-1060" y="528" width="110" height="50" as="geometry" />
        </mxCell>
        <mxCell id="wYO3z8Fsa95_Q1i2Rd3B-51" style="edgeStyle=orthogonalEdgeStyle;rounded=0;orthogonalLoop=1;jettySize=auto;html=1;exitX=0;exitY=0.5;exitDx=0;exitDy=0;entryX=0.453;entryY=0.013;entryDx=0;entryDy=0;entryPerimeter=0;" edge="1" parent="1" source="wYO3z8Fsa95_Q1i2Rd3B-48" target="wYO3z8Fsa95_Q1i2Rd3B-50">
          <mxGeometry relative="1" as="geometry">
            <Array as="points">
              <mxPoint x="-1010" y="435" />
              <mxPoint x="-1010" y="529" />
            </Array>
          </mxGeometry>
        </mxCell>
        <mxCell id="wYO3z8Fsa95_Q1i2Rd3B-52" value="Nē" style="text;html=1;align=center;verticalAlign=middle;resizable=0;points=[];autosize=1;strokeColor=none;fillColor=none;" vertex="1" parent="1">
          <mxGeometry x="-900" y="410" width="40" height="30" as="geometry" />
        </mxCell>
        <mxCell id="wYO3z8Fsa95_Q1i2Rd3B-53" value="Jā" style="text;html=1;align=center;verticalAlign=middle;resizable=0;points=[];autosize=1;strokeColor=none;fillColor=none;" vertex="1" parent="1">
          <mxGeometry x="-1030" y="408" width="40" height="30" as="geometry" />
        </mxCell>
        <mxCell id="wYO3z8Fsa95_Q1i2Rd3B-54" style="edgeStyle=orthogonalEdgeStyle;rounded=0;orthogonalLoop=1;jettySize=auto;html=1;entryX=0.525;entryY=0.049;entryDx=0;entryDy=0;entryPerimeter=0;" edge="1" parent="1" source="wYO3z8Fsa95_Q1i2Rd3B-33" target="wYO3z8Fsa95_Q1i2Rd3B-48">
          <mxGeometry relative="1" as="geometry" />
        </mxCell>
      </root>
    </mxGraphModel>
  </diagram>
</mxfile>
